<svg width="24" height="24" viewBox="0 0 24 24" fill="none" xmlns="http://www.w3.org/2000/svg">
<path d="M12.8246 0.67508L23.3246 11.1751C24.0596 11.9101 23.5393 13.1666 22.4998 13.1666H21.3331V20.1666C21.3331 21.0948 20.9643 21.9851 20.308 22.6415C19.6516 23.2978 18.7614 23.6666 17.8331 23.6666H16.6664V15.4999C16.6665 14.6072 16.3254 13.7481 15.7129 13.0986C15.1005 12.4491 14.263 12.0581 13.3718 12.0057L13.1664 11.9999H10.8331C9.90484 11.9999 9.0146 12.3687 8.35822 13.025C7.70184 13.6814 7.33309 14.5717 7.33309 15.4999V23.6666H6.16643C5.23817 23.6666 4.34793 23.2978 3.69155 22.6415C3.03518 21.9851 2.66643 21.0948 2.66643 20.1666V13.1666H1.49976C0.461427 13.1666 -0.0600729 11.9101 0.674927 11.1751L11.1749 0.67508C11.3937 0.456364 11.6904 0.333496 11.9998 0.333496C12.3091 0.333496 12.6058 0.456364 12.8246 0.67508ZM13.1664 14.3332C13.4758 14.3332 13.7726 14.4562 13.9914 14.675C14.2102 14.8937 14.3331 15.1905 14.3331 15.4999V23.6666H9.66643V15.4999C9.66647 15.2142 9.77138 14.9384 9.96126 14.7248C10.1511 14.5113 10.4128 14.3748 10.6966 14.3414L10.8331 14.3332H13.1664Z" fill="#001022"/>
</svg>
