<svg width="19" height="26" viewBox="0 0 19 26" fill="none" xmlns="http://www.w3.org/2000/svg">
<path fill-rule="evenodd" clip-rule="evenodd" d="M10.3602 25.1343L10.3462 25.1367L10.2634 25.1775L10.24 25.1822L10.2237 25.1775L10.1409 25.1355C10.1284 25.1324 10.1191 25.1347 10.1129 25.1425L10.1082 25.1542L10.0884 25.6535L10.0942 25.6768L10.1059 25.692L10.2272 25.7783L10.2447 25.783L10.2587 25.7783L10.38 25.692L10.394 25.6733L10.3987 25.6535L10.3789 25.1553C10.3757 25.1429 10.3695 25.1359 10.3602 25.1343ZM10.6682 25.0025L10.6519 25.0048L10.4372 25.1133L10.4255 25.125L10.422 25.1378L10.443 25.6395L10.4489 25.6535L10.4582 25.6628L10.6927 25.7702C10.7075 25.7741 10.7187 25.771 10.7265 25.7608L10.7312 25.7445L10.6915 25.0282C10.6876 25.0134 10.6799 25.0048 10.6682 25.0025ZM9.83403 25.0048C9.82888 25.0017 9.82274 25.0007 9.81687 25.002C9.811 25.0033 9.80586 25.0068 9.80253 25.0118L9.79553 25.0282L9.75586 25.7445C9.75664 25.7585 9.76325 25.7678 9.77569 25.7725L9.79319 25.7702L10.0277 25.6617L10.0394 25.6523L10.0429 25.6395L10.0639 25.1378L10.0604 25.1238L10.0487 25.1122L9.83403 25.0048Z" fill="white"/>
<path fill-rule="evenodd" clip-rule="evenodd" d="M9.66732 2.66683C9.04848 2.66683 8.45499 2.91266 8.0174 3.35025C7.57982 3.78783 7.33398 4.38132 7.33398 5.00016H12.0007C12.0007 4.38132 11.7548 3.78783 11.3172 3.35025C10.8796 2.91266 10.2862 2.66683 9.66732 2.66683ZM6.58032 1.50016C7.40282 0.774496 8.48432 0.333496 9.66732 0.333496C10.8503 0.333496 11.9307 0.774496 12.7543 1.50016H16.6673C17.2862 1.50016 17.8796 1.746 18.3172 2.18358C18.7548 2.62117 19.0007 3.21466 19.0007 3.8335V21.3335C19.0007 21.9523 18.7548 22.5458 18.3172 22.9834C17.8796 23.421 17.2862 23.6668 16.6673 23.6668H2.66732C2.04848 23.6668 1.45499 23.421 1.0174 22.9834C0.579817 22.5458 0.333984 21.9523 0.333984 21.3335V3.8335C0.333984 3.21466 0.579817 2.62117 1.0174 2.18358C1.45499 1.746 2.04848 1.50016 2.66732 1.50016H6.58032ZM5.14765 3.8335H2.66732V21.3335H16.6673V3.8335H14.187C14.2834 4.20761 14.3324 4.5965 14.334 5.00016V6.16683C14.334 6.47625 14.2111 6.77299 13.9923 6.99179C13.7735 7.21058 13.4767 7.3335 13.1673 7.3335H6.16732C5.8579 7.3335 5.56115 7.21058 5.34236 6.99179C5.12357 6.77299 5.00065 6.47625 5.00065 6.16683V5.00016C5.00221 4.5965 5.05121 4.20761 5.14765 3.8335ZM5.00065 10.8335C5.00065 10.5241 5.12357 10.2273 5.34236 10.0085C5.56115 9.78975 5.8579 9.66683 6.16732 9.66683H13.1673C13.4767 9.66683 13.7735 9.78975 13.9923 10.0085C14.2111 10.2273 14.334 10.5241 14.334 10.8335C14.334 11.1429 14.2111 11.4397 13.9923 11.6585C13.7735 11.8772 13.4767 12.0002 13.1673 12.0002H6.16732C5.8579 12.0002 5.56115 11.8772 5.34236 11.6585C5.12357 11.4397 5.00065 11.1429 5.00065 10.8335ZM5.00065 15.5002C5.00065 15.1907 5.12357 14.894 5.34236 14.6752C5.56115 14.4564 5.8579 14.3335 6.16732 14.3335H9.66732C9.97674 14.3335 10.2735 14.4564 10.4923 14.6752C10.7111 14.894 10.834 15.1907 10.834 15.5002C10.834 15.8096 10.7111 16.1063 10.4923 16.3251C10.2735 16.5439 9.97674 16.6668 9.66732 16.6668H6.16732C5.8579 16.6668 5.56115 16.5439 5.34236 16.3251C5.12357 16.1063 5.00065 15.8096 5.00065 15.5002Z" fill="white"/>
</svg>