<svg width="23" height="22" viewBox="0 0 23 22" fill="none" xmlns="http://www.w3.org/2000/svg">
<path d="M4.98926 17.5625H7.17676C7.29707 17.5625 7.39551 17.4641 7.39551 17.3438V4.65625C7.39551 4.53594 7.29707 4.4375 7.17676 4.4375H4.98926C4.86895 4.4375 4.77051 4.53594 4.77051 4.65625V17.3438C4.77051 17.4641 4.86895 17.5625 4.98926 17.5625ZM10.2393 9.90625H12.4268C12.5471 9.90625 12.6455 9.80781 12.6455 9.6875V4.65625C12.6455 4.53594 12.5471 4.4375 12.4268 4.4375H10.2393C10.1189 4.4375 10.0205 4.53594 10.0205 4.65625V9.6875C10.0205 9.80781 10.1189 9.90625 10.2393 9.90625ZM15.4893 11.875H17.6768C17.7971 11.875 17.8955 11.7766 17.8955 11.6562V4.65625C17.8955 4.53594 17.7971 4.4375 17.6768 4.4375H15.4893C15.3689 4.4375 15.2705 4.53594 15.2705 4.65625V11.6562C15.2705 11.7766 15.3689 11.875 15.4893 11.875ZM21.3955 0.0625H1.27051C0.786523 0.0625 0.395508 0.453516 0.395508 0.9375V21.0625C0.395508 21.5465 0.786523 21.9375 1.27051 21.9375H21.3955C21.8795 21.9375 22.2705 21.5465 22.2705 21.0625V0.9375C22.2705 0.453516 21.8795 0.0625 21.3955 0.0625ZM20.3018 19.9688H2.36426V2.03125H20.3018V19.9688Z" fill="white"/>
</svg>
